<?xml version="1.0" encoding="UTF-8" standalone="no"?>
<svg
   width="210mm"
   height="210mm"
   viewBox="0 0 210 210"
   version="1.1"
   id="svg5"
   xml:space="preserve"
   inkscape:version="1.2 (dc2aedaf03, 2022-05-15)"
   sodipodi:docname="g.svg"
   xmlns:inkscape="http://www.inkscape.org/namespaces/inkscape"
   xmlns:sodipodi="http://sodipodi.sourceforge.net/DTD/sodipodi-0.dtd"
   xmlns="http://www.w3.org/2000/svg"
   xmlns:svg="http://www.w3.org/2000/svg"><sodipodi:namedview
     id="namedview7"
     pagecolor="#505050"
     bordercolor="#eeeeee"
     borderopacity="1"
     inkscape:showpageshadow="0"
     inkscape:pageopacity="0"
     inkscape:pagecheckerboard="0"
     inkscape:deskcolor="#505050"
     inkscape:document-units="px"
     showgrid="true"
     inkscape:zoom="1.9919472"
     inkscape:cx="539.17091"
     inkscape:cy="163.40794"
     inkscape:window-width="1366"
     inkscape:window-height="732"
     inkscape:window-x="0"
     inkscape:window-y="0"
     inkscape:window-maximized="1"
     inkscape:current-layer="layer1"><inkscape:grid
       type="xygrid"
       id="grid184"
       empcolor="#ffffff"
       empopacity="0.34117647"
       color="#ffffff"
       opacity="0.14901961"
       originx="0"
       originy="0" /></sodipodi:namedview><defs
     id="defs2" /><g
     inkscape:label="Capa 1"
     inkscape:groupmode="layer"
     id="layer1"><path
       style="fill:#ffffff;stroke-width:1.07019"
       d="m 85.219365,167.5076 c -0.27626,-0.71961 -0.362415,-5.82153 -0.191724,-11.33768 l 0.310238,-10.02932 10.701885,-4.06135 c 42.791756,-16.23941 51.140966,-19.28569 51.861266,-18.63289 0.46394,0.42046 0.70473,5.53524 0.53509,11.36628 l -0.30822,10.60182 -10.70189,3.95732 c -5.88604,2.17651 -7.21421,2.93073 -23.00096,8.79036 -19.869934,7.37516 -28.85775,10.25118 -29.205321,9.34546 z M 127,58.208332 c -4.39425,-1.74299 4.57483,-6.59959 3.3616,-11.105229 -2.75963,-10.24838 3.34671,-19.855457 14.28781,-22.478882 l 2.94305,-0.705658 v 18.213588 c 0,19.955486 -14.0427,18.674204 -20.59246,16.076181 z"
       id="path1926"
       sodipodi:nodetypes="cccssccscccscscss" /><circle
       style="fill:none;fill-opacity:1;stroke:#00a2b8;stroke-width:18.931;stroke-linecap:round;stroke-linejoin:round;stroke-dasharray:none;stroke-opacity:1"
       id="path2032"
       cx="109.75084"
       cy="89.958328"
       r="28.890825" /><path
       style="fill:#00a2b8;fill-opacity:1;stroke:#00a2b8;stroke-width:0;stroke-linecap:round;stroke-linejoin:round;stroke-dasharray:none;stroke-opacity:1"
       d="m 84.255089,145.52083 v 24.34167 l 35.160191,-13.52315 2.70463,-24.34167 z"
       id="path1679" /><path
       style="fill:#00a2b8;fill-opacity:1;stroke:#00a2b8;stroke-width:0;stroke-linecap:round;stroke-linejoin:round;stroke-dasharray:none;stroke-opacity:1"
       d="M 147.59246,23.918563 V 35.71875 c 0,0 -4.7074,3.119886 -7.3633,3.968749 -3.38646,1.082364 -10.58333,1.322917 -10.58333,1.322917 0,0 1.50176,-16.668928 17.94663,-17.091853 z"
       id="path2415"
       sodipodi:nodetypes="ccscc" /></g></svg>
